<svg width="380" height="332" viewBox="0 0 380 332" fill="none" xmlns="http://www.w3.org/2000/svg">
<path d="M169.305 75.5796C178.962 63.7523 193.394 56.4119 208.633 55.6055C211.239 55.4814 210.867 51.408 208.261 51.5321C191.988 52.4212 176.46 60.3405 166.204 72.9329C164.55 75.0006 167.631 77.606 169.305 75.5796Z" fill="white"/>
<path d="M232.08 53.2281C239.296 52.6492 246.802 53.7657 253.853 55.2338C260.697 56.7019 267.583 59.3486 272.276 64.766C273.993 66.7303 277.322 64.4351 275.626 62.4501C270.581 56.5778 263.592 53.3108 256.148 51.574C248.332 49.6923 239.772 48.5137 231.729 49.1754C229.061 49.4028 229.433 53.4763 232.08 53.2281Z" fill="white"/>
<path d="M228.007 99.5447C235.265 95.1404 243.329 92.287 251.724 91.1911C255.839 90.6535 259.995 90.4881 264.151 90.7776C268.1 91.067 273.166 91.3152 276.454 93.6724C278.583 95.1818 281.23 92.0802 279.1 90.5708C275.44 87.9655 270.829 87.3452 266.467 86.9109C261.69 86.4147 256.893 86.456 252.158 87.035C242.75 88.1309 233.735 91.3152 225.671 96.2157C223.437 97.539 225.774 100.889 228.007 99.5447Z" fill="white"/>
<path d="M169.759 109.532C170.979 107.526 173.874 106.389 175.921 105.417C177.927 104.445 179.953 103.577 182.041 102.853C186.322 101.344 190.726 100.289 195.254 99.7104C204.187 98.6145 213.181 99.4623 221.783 102.192C224.264 102.957 224.967 98.966 222.507 98.201C212.809 95.1408 202.45 94.417 192.421 96.0505C187.603 96.8156 182.848 98.1389 178.319 99.9172C174.039 101.633 168.581 103.701 166.099 107.774C164.714 110.008 168.415 111.765 169.759 109.532Z" fill="white"/>
<path d="M211.093 158.061C211.051 158.02 211.01 157.937 210.969 157.896C210.514 157.4 209.873 156.883 209.087 157.048C207.04 157.503 206.068 159.653 207.743 161.245C209.707 163.127 213.491 163.892 216.014 164.512C222.093 165.939 228.524 165.898 234.603 164.512C246.265 161.866 256.086 154.071 261.71 143.567C262.972 141.251 259.27 139.493 258.05 141.809C253.77 149.749 246.761 156.035 238.283 159.178C234.003 160.77 229.392 161.535 224.822 161.494C222.382 161.452 219.881 161.163 217.523 160.646C216.386 160.398 215.249 160.108 214.091 159.757C213.429 159.55 212.788 159.26 212.127 159.033C212.044 158.992 210.659 158.413 210.783 158.619C210.741 159.157 210.741 159.674 210.7 160.212C210.741 160.129 210.783 160.046 210.824 160.005C210.245 160.377 209.728 160.77 209.19 161.142C209.273 161.142 209.356 161.101 209.439 161.101C208.818 160.811 208.219 160.522 207.557 160.253C207.598 160.294 207.64 160.377 207.681 160.418C209.459 162.341 212.85 160.026 211.093 158.061Z" fill="white"/>
<path d="M262.538 142.615C257.121 130.478 238.78 129.816 230.819 139.638C231.626 139.473 232.453 139.307 233.259 139.1C224.782 135.792 216.18 140.61 211.238 147.578C209.977 149.336 208.922 151.197 207.888 153.119C207.041 154.836 205.2 157.4 205.159 159.364C205.118 160.997 206.875 163.107 207.806 164.368C208.984 166.001 210.328 167.511 211.796 168.855C217.669 174.314 225.65 177.456 233.652 177.374C241.675 177.291 249.387 173.507 254.929 167.8C261.029 161.535 265.702 151.259 262.538 142.615C261.649 140.176 257.803 141.561 258.713 144.042C260.863 149.915 258.134 157.007 254.639 161.804C251.083 166.704 246.038 170.406 240.248 172.204C228.379 175.864 214.732 169.641 209.067 158.744C209.026 159.281 209.026 159.798 208.984 160.336C211.135 155.477 213.388 150.431 217.296 146.689C220.956 143.132 226.477 140.858 231.481 142.822C232.287 143.153 233.321 143.029 233.921 142.285C239.834 134.986 254.474 134.572 258.671 144.042C259.767 146.42 263.593 145.035 262.538 142.615Z" fill="white"/>
<path d="M192.256 30.6071C196.412 29.3045 200.609 28.2913 204.89 27.671C207.019 27.3401 209.129 27.1334 211.258 27.0093C213.905 26.8439 215.952 27.2574 218.351 28.312C226.787 31.9305 234.541 37.5546 242.191 42.5792C249.904 47.583 257.513 52.773 265.06 58.0664C272.028 62.9668 278.997 67.9707 287.143 70.7415C286.812 70.3693 286.44 69.9764 286.13 69.6042C294.566 86.394 296.965 105.727 292.499 124.026C292.251 124.998 293.119 126.342 294.132 126.384C294.711 126.425 291.196 148.281 290.782 150.266C290.369 152.251 290.017 154.256 289.438 156.221C288.818 158.309 287.846 159.157 286.461 160.666C284.104 163.23 285.613 167.035 283.649 169.888C282.76 171.232 281.457 171.729 280.258 172.742C279.079 173.714 279.203 175.595 278.914 176.981C278.252 180.33 277.156 183.783 274.013 185.5C272.793 186.161 271.573 186.554 270.498 187.505C269.03 188.808 268.141 190.731 266.88 192.24C264.481 195.135 260.801 197.41 257.099 195.425C256.21 194.928 254.784 195.383 254.37 196.396C252.943 200.18 248.829 202.062 245.045 200.677C243.328 200.056 242.108 199.457 240.351 200.346C238.842 201.111 237.787 202.496 236.153 203.199C231.418 205.246 228.007 202.496 223.727 200.925C219.901 199.498 216.303 200.635 212.395 200.925C209.749 201.131 208.074 200.263 205.965 198.836C204.621 197.947 203.236 197.079 201.561 196.872C199.431 196.582 197.818 197.72 195.854 198.257C193.621 198.878 191.16 198.588 189.092 197.534C187.418 196.686 186.404 195.176 184.978 194.019C183.22 192.592 181.111 192.55 178.981 192.137C175.363 191.372 171.517 188.353 172.427 184.28C172.716 182.936 171.496 181.84 170.235 181.881C165.872 182.088 164.032 174.954 161.054 172.556C159.421 171.253 157.27 170.55 156.319 168.565C155.389 166.601 155.699 164.492 156.857 162.734C157.477 161.762 156.774 160.501 155.885 160.005C154.748 159.343 153.879 158.33 153.569 157.027C153.197 155.683 153.941 154.546 153.693 153.285C153.486 152.147 152.184 150.927 151.543 149.976C150.612 148.591 149.702 147.205 148.813 145.737C148.937 146.234 149.02 146.751 149.144 147.247C149.351 146.11 148.482 145.158 148.007 144.269C148.131 144.766 148.214 145.283 148.338 145.779C148.503 144.848 147.966 144.187 147.531 143.422C146.725 141.954 145.898 140.444 145.174 138.893C143.747 135.874 142.197 132.773 142.569 129.32C142.858 126.756 143.913 124.502 146.187 123.282C148.028 122.269 150.633 121.814 152.142 123.654C153.817 125.66 156.919 123.572 155.492 121.338C148.11 109.677 150.075 94.9337 154.52 82.5688C157.084 75.3938 160.434 68.5083 163.411 61.4988C165.893 55.6678 169.49 48.741 167.526 42.269C167.278 43.0341 167.03 43.8612 166.802 44.6262C169.532 42.3517 172.427 40.346 175.528 38.5058C177.761 37.1618 175.445 33.8121 173.212 35.1561C170.152 36.955 167.257 38.9814 164.487 41.2765C163.763 41.8969 163.473 42.7446 163.763 43.6337C164.859 47.2109 163.225 51.0982 161.964 54.3858C160.537 58.087 158.945 61.7262 157.312 65.3447C154.21 72.3129 151.108 79.2811 148.999 86.6215C145.443 98.8003 145.215 112.592 152.225 123.634C153.321 122.868 154.458 122.083 155.575 121.318C151.46 116.417 143.913 118.175 140.584 123.075C135.456 130.581 140.832 139.865 144.74 146.544C144.616 146.048 144.533 145.531 144.409 145.034C144.202 146.13 145.029 147.164 145.546 148.012C145.422 147.516 145.34 146.999 145.215 146.502C144.967 147.805 146.105 148.984 146.766 150.018C147.821 151.692 148.958 153.326 150.157 154.918C150.033 154.422 149.951 153.905 149.826 153.409C148.607 157.523 150.55 161.679 154.231 163.727C153.9 162.837 153.569 161.928 153.259 160.997C150.116 165.98 152.328 171.646 156.877 174.603C162.005 177.952 163.308 186.306 170.648 185.975C169.925 185.169 169.18 184.383 168.457 183.577C167.03 190.049 172.819 195.238 178.774 196.252C179.953 196.458 181.338 196.5 182.352 197.141C183.055 197.596 183.53 198.319 184.109 198.898C185.412 200.201 187.045 201.214 188.762 201.834C192.153 203.054 195.44 202.765 198.79 201.545C201.354 200.615 202.491 201.421 204.662 202.848C206.172 203.861 207.722 204.688 209.563 204.936C213.388 205.474 217.193 203.633 220.976 204.316C224.719 205.019 227.614 207.79 231.543 208.017C234.934 208.224 238.263 207.169 240.951 205.081C241.757 204.419 242.005 203.985 243.039 204.192C243.845 204.357 244.631 204.895 245.479 205.039C247.154 205.412 248.87 205.329 250.483 204.874C253.957 203.985 256.872 201.524 258.154 198.154C257.265 198.485 256.355 198.816 255.425 199.126C258.361 200.718 261.855 200.635 264.874 199.208C268.617 197.41 270.126 194.122 272.773 191.186C274.034 189.759 275.998 189.387 277.508 188.25C278.728 187.319 279.7 186.161 280.527 184.859C282.367 181.84 282.967 178.263 283.504 174.83C283.049 175.368 282.656 175.843 282.201 176.381C286.109 174.375 288.839 170.757 289.128 166.311C289.252 164.719 289.5 163.664 290.638 162.527C291.486 161.721 292.106 160.77 292.602 159.715C293.698 157.317 294.112 154.587 294.649 152.044C295.91 146.13 296.841 140.175 297.585 134.2C297.999 130.933 300.397 122.703 294.897 122.455C295.435 123.22 295.993 124.047 296.531 124.812C299.053 114.453 299.55 103.577 297.916 93.0107C297.151 87.9241 295.869 82.8996 294.174 78.0612C293.408 75.8694 292.54 73.6983 291.568 71.5892C291.072 70.4933 290.596 69.3147 289.976 68.2809C289.273 67.185 288.384 66.9782 287.205 66.5233C276.205 62.4086 266.818 54.3031 257.203 47.7278C247.34 41.0491 237.394 34.2256 227.076 28.2499C224.14 26.5337 221.121 24.9829 217.937 23.8043C214.918 22.7084 212.271 22.8739 209.087 23.1427C202.884 23.6803 196.826 24.983 190.871 26.8025C188.348 27.5469 189.733 31.3929 192.256 30.6071Z" fill="white"/>
<path d="M218.185 105.727C216.221 116.086 208.115 124.481 197.673 126.321C187.438 128.162 176.976 123.509 171.455 114.742C165.872 105.851 166.472 93.9617 172.923 85.6701C179.374 77.3786 190.333 73.8015 200.403 76.779C212.809 80.4595 220.211 93.0932 218.185 105.727C217.772 108.291 221.762 109.035 222.176 106.451C224.264 93.6101 217.937 80.6042 206.234 74.7733C195.275 69.3145 181.855 71.3409 172.923 79.6324C163.949 87.9446 161.013 101.529 165.831 112.819C170.607 123.943 181.855 131.118 193.952 130.788C207.888 130.415 219.591 119.953 222.155 106.409C222.713 103.866 218.681 103.122 218.185 105.727Z" fill="white"/>
<path d="M276.969 99.5446C274.964 110.028 266.734 118.464 256.106 120.242C245.499 122 234.747 116.81 229.536 107.443C224.367 98.1179 225.711 86.2079 232.72 78.2265C239.688 70.2865 251.309 67.4744 261.131 71.341C272.441 75.8073 278.913 87.6346 276.969 99.5446C276.556 102.109 280.546 102.853 280.96 100.268C282.966 88.1309 277.445 75.9313 266.858 69.6248C256.251 63.2976 242.232 64.4969 232.824 72.4369C223.333 80.501 219.735 94.0032 224.263 105.706C228.709 117.244 240.081 124.833 252.426 124.667C266.486 124.461 278.396 113.915 281.001 100.248C281.477 97.663 277.445 96.96 276.969 99.5446Z" fill="white"/>
<path d="M153.528 153.718C154.107 153.098 157.271 156.53 157.808 156.861C159.524 157.916 161.075 157.874 162.895 157.275C166.72 156.013 171.042 156.737 173.047 160.707C173.854 162.299 175.859 162.465 176.79 160.872C179.436 156.427 186.032 155.703 189.837 158.991C190.726 159.756 192.566 159.57 193.021 158.288C195.627 150.389 199.493 142.511 206.027 137.135C212.189 132.09 220.791 129.423 228.524 132.131C229.62 132.545 230.612 132.214 231.253 131.159C234.024 126.507 240.786 126.3 245.562 126.672C251.641 127.127 257.389 129.03 262.641 132.131C263.262 132.503 264.151 132.338 264.688 131.966C267.749 129.815 270.767 133.682 272.36 135.832C273.249 137.052 275.213 136.97 275.875 135.543C277.756 131.552 282.471 131.8 284.476 135.543C285.241 137.052 288.053 136.432 288.136 134.737C288.302 131.159 290.7 126.631 294.774 126.424C297.379 126.259 297.007 122.227 294.401 122.351C288.653 122.682 284.373 128.678 284.125 134.054C285.345 133.765 286.565 133.517 287.785 133.248C284.311 126.735 275.234 127.293 272.173 133.827C273.352 133.744 274.489 133.62 275.689 133.537C272.628 129.423 267.542 124.977 262.31 128.637C263.013 128.595 263.654 128.513 264.357 128.471C257.886 124.646 250.545 122.64 242.998 122.558C237.043 122.516 230.819 124.067 227.594 129.443C228.483 129.112 229.392 128.782 230.323 128.471C221.721 125.494 212.272 127.5 205.014 132.876C197.198 138.665 192.38 147.515 189.403 156.592C190.457 156.344 191.533 156.137 192.587 155.889C186.715 150.72 177.183 152.457 173.233 159.115C174.495 159.156 175.715 159.239 176.976 159.28C174.619 154.587 169.47 151.692 164.177 152.684C162.461 153.015 161.158 154.07 159.566 153.015C158.428 152.312 157.767 151.051 156.547 150.41C154.458 149.273 152.225 149.355 150.55 151.113C148.607 152.974 151.75 155.62 153.528 153.718Z" fill="white"/>
<path d="M221.535 124.358C221.783 124.275 222.031 124.234 222.238 124.151C222.486 124.068 222.734 123.944 222.9 123.737C223.106 123.572 223.272 123.365 223.396 123.117C223.52 122.869 223.603 122.58 223.561 122.352C223.603 122.063 223.561 121.815 223.437 121.587C223.354 121.422 223.272 121.256 223.189 121.132C222.982 120.843 222.693 120.595 222.424 120.429C222.259 120.388 222.052 120.305 221.886 120.264C221.514 120.181 221.163 120.222 220.832 120.346C220.584 120.429 220.336 120.471 220.129 120.553C219.881 120.636 219.633 120.76 219.467 120.967C219.26 121.132 219.095 121.339 218.971 121.587C218.847 121.835 218.764 122.125 218.806 122.352C218.764 122.642 218.806 122.89 218.93 123.117C219.012 123.283 219.095 123.448 219.178 123.572C219.384 123.862 219.674 124.11 219.943 124.275C220.108 124.316 220.315 124.399 220.48 124.441C220.832 124.523 221.204 124.482 221.535 124.358Z" fill="white"/>
<path d="M228.812 123.22C231.418 123.22 231.418 119.147 228.812 119.147C226.207 119.147 226.166 123.22 228.812 123.22Z" fill="white"/>
<path d="M126.316 132.711C126.771 132.793 127.205 132.835 127.66 132.917C127.908 133.372 128.156 133.806 128.363 134.261C128.363 134.179 128.363 134.096 128.363 134.013C127.019 134.137 125.675 134.261 124.29 134.385C124.497 138.914 123.794 143.525 122.201 147.805C120.775 151.671 118.769 155.745 115.233 158.081C114.055 158.846 114.22 160.397 115.068 161.307C117.384 163.788 120.981 164.533 124.29 164.119C127.846 163.706 131.672 162.486 134.939 161.018C141.41 158.164 144.967 152.168 148.193 146.13C149.413 143.814 145.753 142.057 144.533 144.372C141.969 149.19 139.157 154.566 134.008 157.006C131.361 158.267 128.301 159.198 125.406 159.818C122.677 160.397 119.782 160.356 117.777 158.185C117.735 159.239 117.652 160.335 117.611 161.41C121.726 158.722 124.248 154.029 125.923 149.542C127.805 144.559 128.611 139.307 128.363 134.013C128.239 131.408 124.207 131.78 124.29 134.385C124.373 136.06 126.171 137.239 127.722 136.536C130.1 135.44 128.715 131.615 126.316 132.711Z" fill="white"/>
<path d="M127.579 134.841C128.509 114.867 117.22 97.0222 116.971 77.2135C116.723 59.4519 128.344 42.3726 144.369 35.0736C146.333 34.1844 148.318 33.4401 150.365 32.8404C152.081 32.3442 154.562 32.3855 155.658 30.7934C157.044 28.7877 157.933 26.5546 159.525 24.5902C161.158 22.5845 163.04 20.8063 165.066 19.1728C173.751 12.4114 184.586 9.59932 195.234 7.67635C206.731 5.58796 218.641 3.43751 230.324 4.32663C236.196 4.78153 241.861 6.0842 247.237 8.44139C252.531 10.7572 257.638 13.3419 263.138 15.2442C269.134 17.3739 274.056 20.186 278.212 25.0245C282.037 29.5528 285.263 34.722 287.744 40.0567C290.101 45.1019 291.941 50.4987 293.079 55.9574C293.658 58.6455 294.05 61.3749 294.299 64.1042C294.423 65.5723 294.96 67.4539 293.203 67.8054C291.941 68.0949 290.018 67.2678 288.881 66.9163C286.441 66.0686 284.642 69.7284 287.124 70.5762C291.776 72.1683 298.62 72.9747 298.537 66.1306C298.455 59.762 296.863 53.1247 294.919 47.087C291.052 35.2596 283.96 21.8195 273.022 15.1201C269.962 13.2385 266.55 12.1012 263.159 10.9226C259.602 9.66133 256.232 8.11054 252.841 6.5184C245.997 3.21006 239.111 0.935597 231.481 0.273928C223.934 -0.38774 216.366 0.232577 208.861 1.24576C201.562 2.25894 194.221 3.43752 187.046 5.11237C172.903 8.37936 158.512 15.1408 151.957 28.9117C152.495 28.5396 153.053 28.1467 153.591 27.7745C138.31 30.752 125.18 41.1526 118.171 54.9649C114.594 62.0572 112.712 69.8938 112.919 77.8339C113.125 86.6837 115.565 95.2854 118.047 103.722C120.941 113.543 124.043 123.572 123.547 133.972C123.423 136.722 127.455 137.446 127.579 134.841Z" fill="white"/>
<path d="M175.053 38.5676C181.173 36.2931 186.963 33.4397 192.711 30.3795C193.683 29.8419 193.807 28.3738 193.207 27.5261C192.504 26.5542 191.325 26.5129 190.354 27.0298C184.936 29.9246 179.395 32.5713 173.646 34.7424C171.186 35.6729 172.571 39.4981 175.053 38.5676Z" fill="white"/>
<path d="M146.974 148.095C149.704 151.362 154.025 153.264 158.305 152.582C162.379 151.92 165.976 149.232 167.672 145.489C168.768 143.091 165.067 141.333 164.012 143.732C162.916 146.13 160.58 148.095 157.933 148.55C155.121 149.005 152.143 147.971 150.303 145.779C149.6 144.931 148.422 144.6 147.45 145.283C146.643 145.841 146.25 147.226 146.974 148.095Z" fill="white"/>
<path d="M153.736 137.116C153.736 137.033 153.736 136.95 153.736 136.868C153.736 136.578 153.736 136.992 153.736 137.033C153.736 136.868 153.777 136.702 153.777 136.537C153.818 136.206 153.86 135.834 153.942 135.524C153.984 135.358 154.025 135.193 154.066 135.027C154.149 134.779 153.901 135.441 154.025 135.193C154.066 135.11 154.066 135.027 154.108 134.945C154.232 134.614 154.356 134.283 154.521 134.014C154.604 133.849 154.687 133.725 154.769 133.559C154.811 133.476 154.852 133.435 154.894 133.352C155.018 133.104 154.852 133.435 154.811 133.476C155.018 133.228 155.183 132.939 155.39 132.711C155.597 132.422 155.845 132.215 156.093 131.988C156.258 131.781 155.762 132.277 155.969 132.112C156.051 132.07 156.093 131.988 156.175 131.946C156.3 131.822 156.465 131.698 156.63 131.616C157.478 130.995 157.809 129.651 157.127 128.762C156.465 127.914 155.204 127.583 154.273 128.266C151.337 130.396 149.704 133.807 149.745 137.446C149.745 138.501 150.923 139.452 151.937 139.287C153.095 139.204 153.777 138.294 153.736 137.116Z" fill="white"/>
<path d="M153.341 137.032C154.003 137.239 154.602 137.405 155.264 137.611C155.554 137.653 155.802 137.653 156.071 137.57C156.319 137.529 156.567 137.446 156.794 137.28C157.022 137.115 157.208 136.95 157.332 136.701C157.497 136.495 157.621 136.247 157.663 135.978C157.663 135.812 157.663 135.606 157.704 135.44C157.663 135.068 157.539 134.737 157.332 134.468C157.208 134.344 157.084 134.22 156.96 134.096C156.67 133.848 156.339 133.683 155.988 133.641C155.326 133.435 154.727 133.269 154.065 133.062C153.775 133.021 153.527 133.021 153.258 133.104C153.01 133.145 152.762 133.228 152.535 133.393C152.287 133.559 152.121 133.724 151.997 133.972C151.832 134.179 151.708 134.427 151.666 134.696C151.666 134.861 151.666 135.068 151.625 135.233C151.666 135.606 151.79 135.936 151.997 136.205C152.121 136.329 152.245 136.453 152.369 136.577C152.638 136.826 152.969 136.95 153.341 137.032Z" fill="white"/>
<path d="M189.444 106.762C189.816 107.382 190.333 107.899 190.995 108.23C191.698 108.561 192.38 108.767 193.145 108.685C193.869 108.602 194.614 108.478 195.234 108.023C195.523 107.816 195.854 107.61 196.04 107.32C196.454 106.865 196.619 106.514 196.847 105.976C196.929 105.687 196.929 105.438 196.888 105.17C196.888 104.88 196.805 104.632 196.64 104.405C196.392 103.991 195.916 103.598 195.42 103.474C194.882 103.35 194.324 103.391 193.828 103.681C193.704 103.805 193.538 103.888 193.414 104.012C193.166 104.26 193.001 104.591 192.877 104.901V104.942C192.959 104.777 193.001 104.611 193.083 104.446C193.042 104.57 192.959 104.694 192.835 104.818C192.959 104.694 193.042 104.529 193.166 104.405C193.083 104.529 192.959 104.611 192.835 104.735C192.959 104.611 193.125 104.529 193.249 104.405C193.083 104.529 192.918 104.611 192.753 104.694C192.918 104.611 193.083 104.57 193.249 104.487C193.042 104.57 192.835 104.611 192.629 104.653C192.794 104.611 193.001 104.611 193.166 104.57C192.959 104.611 192.711 104.611 192.504 104.57C192.67 104.611 192.877 104.611 193.042 104.653C192.835 104.611 192.629 104.57 192.463 104.487C192.629 104.57 192.794 104.611 192.959 104.694C192.794 104.611 192.67 104.529 192.546 104.446C192.67 104.57 192.835 104.653 192.959 104.777C192.835 104.694 192.753 104.57 192.629 104.446C192.753 104.57 192.835 104.735 192.959 104.86C192.918 104.818 192.877 104.735 192.835 104.694C192.546 104.239 192.112 103.888 191.615 103.764C191.119 103.64 190.478 103.681 190.023 103.97C189.568 104.26 189.217 104.673 189.093 105.19C189.113 105.728 189.155 106.307 189.444 106.762Z" fill="white"/>
<path d="M250.422 98.1182C250.422 98.2009 250.463 98.2422 250.463 98.325C250.546 98.5317 250.628 98.7798 250.752 98.9866C250.876 99.1934 251.042 99.3588 251.166 99.5242C251.207 99.5656 251.249 99.6483 251.331 99.6897C251.538 99.8964 251.828 100.103 252.055 100.227C252.345 100.351 252.634 100.517 252.903 100.558C253.606 100.682 254.123 100.682 254.826 100.558C255.446 100.434 255.963 100.103 256.459 99.7103C256.501 99.669 256.583 99.5863 256.625 99.5449C256.79 99.3795 256.956 99.1727 257.08 98.9659C257.204 98.7592 257.286 98.511 257.369 98.3043C257.41 98.2216 257.41 98.1389 257.452 98.0561C257.535 97.7667 257.534 97.5185 257.493 97.2497C257.493 96.9603 257.41 96.7121 257.245 96.4847C256.997 96.0712 256.521 95.6783 256.025 95.5542C255.487 95.4302 254.929 95.4715 254.433 95.761C254.019 96.0505 253.585 96.464 253.502 96.9809C253.502 97.0636 253.461 97.1877 253.42 97.2704C253.502 97.105 253.544 96.9396 253.627 96.7742C253.585 96.8569 253.544 96.9396 253.461 97.0223C253.585 96.8982 253.668 96.7328 253.792 96.6088C253.709 96.6915 253.627 96.7742 253.544 96.8569C253.668 96.7328 253.833 96.6501 253.957 96.5261C253.833 96.6088 253.751 96.6915 253.627 96.7328C253.792 96.6501 253.957 96.6088 254.123 96.5261C253.957 96.6088 253.792 96.6501 253.627 96.6501C253.792 96.6088 253.999 96.6087 254.164 96.5674C253.957 96.6087 253.792 96.6087 253.585 96.5674C253.751 96.6087 253.957 96.6088 254.123 96.6501C253.957 96.6088 253.792 96.5674 253.627 96.5261C253.792 96.6088 253.957 96.6501 254.123 96.7328C253.999 96.6915 253.875 96.6088 253.792 96.5261C253.916 96.6501 254.081 96.7328 254.205 96.8569C254.123 96.7742 254.04 96.7328 253.999 96.6501C254.123 96.7742 254.205 96.9396 254.33 97.0637C254.247 96.9809 254.206 96.8982 254.164 96.7742C254.247 96.9396 254.288 97.105 254.371 97.2704C254.33 97.1877 254.33 97.105 254.288 97.0223C254.164 96.526 253.751 96.0505 253.358 95.8023C252.903 95.5542 252.262 95.4301 251.766 95.5956C251.269 95.761 250.794 96.0505 250.546 96.5261C250.463 96.6915 250.422 96.8569 250.339 97.0223C250.339 97.4152 250.339 97.746 250.422 98.1182Z" fill="white"/>
<path d="M38.3136 212.091C40.2366 207.356 42.8833 202.869 46.2123 198.982C49.1071 195.591 54.0076 189.801 58.8047 189.512C66.2278 189.077 60.5209 199.953 59.2803 203.076C57.0471 208.7 54.8347 214.303 52.6015 219.928C54.235 220.382 55.8685 220.837 57.5227 221.292C58.9494 217.219 60.4382 213.104 62.7954 209.486C64.9665 206.157 69.226 201.587 73.7129 202.559C79.213 203.737 72.9892 213.849 71.7279 216.64C69.3914 221.83 67.0342 226.999 64.6563 232.168C66.2071 232.83 67.7579 233.471 69.3087 234.133C71.4384 228.095 73.9403 220.796 80.2882 217.943C83.2657 216.599 86.8429 216.702 89.3241 219.038C92.4257 221.975 90.7302 225.676 89.138 228.922C85.9744 235.373 82.3766 241.618 79.3991 248.152C77.5382 252.246 76.4009 257.333 80.1435 260.703C82.5627 262.895 86.1812 259.297 83.7413 257.105C80.8052 254.458 84.7338 248.814 86.0778 246.188C88.1455 242.114 90.2133 238.02 92.281 233.947C95.3205 227.93 98.6702 221.023 92.9013 215.441C88.3523 211.057 81.4875 211.119 76.3182 214.303C69.6809 218.377 66.8481 225.759 64.3668 232.768C63.4157 235.456 67.7992 237.358 69.0192 234.732C72.5136 227.144 76.0908 219.555 79.3578 211.864C81.4668 206.88 82.2939 200.078 75.9874 197.886C70.6113 196.025 64.8011 199.271 61.2239 203.179C56.9231 207.893 54.6486 214.014 52.5809 219.948C51.485 223.091 56.3027 224.291 57.502 221.313C60.6036 213.497 64.1187 205.702 66.8067 197.741C68.7297 192.055 67.3443 185.521 60.5209 184.57C54.235 183.701 48.5282 189.119 44.5375 193.295C39.6784 198.361 36.0185 204.296 33.3925 210.788C32.1519 213.766 37.0937 215.089 38.3136 212.091Z" fill="white"/>
<path d="M32.1125 213.29C31.12 220.94 28.494 230.39 32.6294 237.523C34.3042 240.418 37.075 242.796 40.3833 243.478C41.0863 243.623 41.9962 243.478 42.6578 243.685C43.7744 244.057 43.7744 244.285 44.25 245.319C44.9737 246.869 45.5526 248.317 46.6485 249.681C48.7162 252.287 51.6937 254.168 54.9607 254.809C56.8837 255.181 59.1995 254.727 60.6676 256.236C61.7842 257.415 62.3631 259.234 63.2522 260.578C67.2429 266.513 74.3145 269.242 81.262 268.146C84.4877 267.65 83.123 262.729 79.8973 263.225C76.8164 263.7 73.6322 262.935 71.0269 261.24C68.2561 259.441 67.2016 256.877 65.4854 254.251C63.6865 251.501 61.4327 250.364 58.207 250.033C54.6712 249.681 51.611 248.544 49.7708 245.256C48.4681 242.92 48.0132 240.211 45.2838 239.053C43.7744 238.412 42.1409 238.785 40.6521 238.226C39.1841 237.689 38.0468 236.551 37.2197 235.228C35.2554 232.147 35.4001 228.322 35.731 224.827C36.1032 220.961 36.6821 217.094 37.1991 213.248C37.6333 210.043 32.526 210.064 32.1125 213.29Z" fill="white"/>
<path d="M34.7583 218.893C29.589 214.013 24.5852 208.947 19.7881 203.695C15.4459 198.94 10.8969 194.081 7.91938 188.312C4.4663 181.633 3.99072 174.313 8.33292 167.965C11.8274 162.899 16.335 157.689 21.711 154.587C28.0176 150.927 34.2414 151.3 40.3204 155.104C45.4277 158.309 52.003 162.176 53.5125 168.482C55.146 175.223 48.9842 179.544 45.3036 184.176C42.8224 187.319 41.0648 192.323 44.704 195.3C47.2266 197.368 50.8451 193.791 48.3018 191.703C45.6552 189.532 54.629 181.467 55.9937 179.441C58.8058 175.244 59.6949 170.302 57.896 165.505C56.0764 160.646 52.2098 157.151 48.0951 154.215C43.8356 151.175 39.2453 147.867 33.9726 147.04C22.8276 145.282 13.6263 153.222 7.11298 161.266C3.76328 165.401 0.827126 169.599 0.165458 175.016C-0.516887 180.537 0.971856 186.037 3.51514 190.917C6.49265 196.665 10.9796 201.586 15.2804 206.342C20.3463 211.966 25.6397 217.342 31.1398 222.532C33.5383 224.745 37.1362 221.147 34.7583 218.893Z" fill="white"/>
<path d="M79.4827 258.883C87.8776 265.686 97.3684 270.938 107.686 274.122C112.607 275.652 117.735 276.769 122.843 275.487C127.516 274.308 131.63 271.414 134.959 268.023C138.164 264.756 141.411 260.662 142.879 256.299C144.409 251.729 143.044 246.746 140.273 242.941C137.213 238.744 132.726 235.808 128.384 233.058C124.083 230.328 119.39 227.95 114.241 227.599C109.63 227.268 104.605 228.839 101.483 232.334C99.7463 234.278 99.312 237.524 97.3684 239.137C95.4661 240.708 92.8401 239.984 91.4134 238.227C89.3663 235.663 85.7685 239.302 87.8155 241.825C89.8626 244.389 93.2537 245.464 96.4586 244.926C100.284 244.285 102.165 241.701 103.696 238.372C108.121 228.715 119.638 233.471 126.254 237.731C130.162 240.253 134.525 242.941 136.903 247.077C139.612 251.77 137.958 255.844 135.083 259.938C132.623 263.432 129.542 266.679 125.799 268.808C121.395 271.31 116.846 271.331 112.049 270.07C101.483 267.32 91.5581 262.13 83.1012 255.265C80.5579 253.238 76.9394 256.816 79.4827 258.883Z" fill="white"/>
<path d="M78.4894 263.825C78.4687 263.846 78.448 263.866 78.4273 263.866C78.5928 263.742 78.7789 263.597 78.9443 263.473C78.9236 263.494 78.9029 263.494 78.8822 263.515C79.089 263.432 79.2958 263.349 79.4819 263.267C79.4405 263.287 79.3785 263.308 79.3371 263.308C79.5646 263.287 79.792 263.246 80.0195 263.225C79.9988 263.225 79.9574 263.225 79.9368 263.225C80.5364 264.673 81.136 266.12 81.7357 267.567C81.777 267.526 81.7977 267.485 81.8391 267.443C81.6736 267.567 81.4875 267.712 81.3221 267.836C81.3842 267.774 81.4462 267.753 81.5289 267.712C81.3221 267.795 81.1153 267.878 80.9293 267.96C81.3635 267.774 81.8597 267.774 82.3353 267.691C82.8729 267.588 83.3898 267.443 83.9068 267.257C85.0854 266.844 86.2433 266.306 87.2772 265.603C87.8354 265.231 88.2696 264.735 88.4557 264.073C88.6211 263.473 88.5384 262.646 88.2076 262.109C87.8561 261.571 87.3392 261.095 86.6775 260.93C86.0365 260.785 85.2715 260.806 84.7132 261.178C84.0722 261.612 83.4105 261.985 82.6868 262.295C82.8936 262.212 83.1004 262.129 83.2864 262.047C82.5627 262.357 81.8184 262.584 81.0326 262.75C80.6811 262.832 80.3089 262.853 79.9574 262.936C79.6266 262.998 79.2544 263.142 78.9856 263.308C78.6754 263.473 78.3653 263.701 78.1585 263.97C77.8897 264.321 77.6209 264.652 77.4968 265.086C77.3521 265.644 77.4142 266.223 77.6209 266.74C78.0138 267.691 78.9236 268.27 79.9574 268.312C80.8052 268.332 81.4876 267.981 82.1079 267.443C82.5834 267.05 82.8522 266.244 82.8522 265.644C82.8522 265.024 82.5834 264.28 82.1079 263.845C81.6323 263.391 80.9913 263.06 80.3089 263.101C79.5852 263.101 79.027 263.37 78.4894 263.825Z" fill="white"/>
<path d="M77.6836 202.641C81.3228 202.496 85.0653 202.289 88.6011 203.385C91.8681 204.399 93.9565 206.425 95.4246 209.464C98.7329 216.35 100.222 223.484 101.173 231.031C101.338 232.395 102.227 233.574 103.716 233.574C104.957 233.574 106.445 232.395 106.259 231.031C105.163 222.284 103.53 213.827 99.3532 205.97C95.0524 197.885 85.8511 197.224 77.6836 197.554C74.4166 197.678 74.3959 202.786 77.6836 202.641Z" fill="white"/>
<path d="M80.5577 266.037C90.3794 280.118 99.5187 295.213 110.726 308.239C119.7 318.661 131.258 326.828 144.926 319.777C157.87 313.098 169.387 301.044 178.919 290.271C189.133 278.754 197.859 265.996 205.013 252.37C206.543 249.475 202.139 246.89 200.609 249.806C188.017 273.791 170.11 295.978 147.986 311.837C141.824 316.262 134.732 319.715 127.35 315.89C121.292 312.747 116.391 307.33 112.173 302.078C102.372 289.816 93.8945 276.334 84.9206 263.473C83.0803 260.785 78.6761 263.329 80.5577 266.037Z" fill="white"/>
<path d="M154.83 170.322C143.54 173.279 138.412 187.236 134.38 196.872C129.107 209.402 126.006 222.698 128.012 236.303C128.487 239.529 133.388 238.164 132.933 234.938C131.196 223.028 134.091 211.118 138.516 200.118C140.625 194.907 143.044 189.717 145.835 184.838C148.254 180.62 151.273 176.505 156.195 175.223C159.358 174.416 158.014 169.495 154.83 170.322Z" fill="white"/>
<path d="M134.484 231.444C146.518 226.151 159.813 229.418 171.682 233.512C182.351 237.192 195.15 240.79 199.782 252.287C200.402 253.858 202.698 255.078 204.042 253.403C206.544 250.302 208.218 246.973 209.004 243.044C209.645 239.839 204.724 238.474 204.083 241.679C203.483 244.698 202.387 247.366 200.444 249.785C201.871 250.157 203.277 250.529 204.703 250.901C199.431 237.792 186.714 233.367 174.349 229.025C160.578 224.207 145.856 220.92 131.94 227.04C128.922 228.363 131.506 232.747 134.484 231.444Z" fill="white"/>
<path d="M144.368 287.996C145.009 297.053 148.751 306.378 156.298 311.858C163.184 316.861 172.551 317.172 179.457 312.023C184.709 308.115 188.121 299.658 184.523 293.6C180.201 286.321 171.434 290.188 168.333 296.35C160.827 311.237 172.964 331.232 189.857 330.054C198.397 329.454 205.365 323.52 210.286 316.944C214.753 310.989 219.736 300.692 210.721 296.04C203.752 292.442 196.784 298.459 195.337 305.22C193.6 313.326 197.467 322.382 204.125 327.138C219.446 338.076 240.475 325.256 242.998 307.97C243.907 301.726 240.951 292.752 233.031 294.344C225.463 295.874 223.396 304.91 224.595 311.423C225.856 318.268 230.55 325.567 237.311 328.027C244.838 330.777 252.447 326.6 257.099 320.749C264.212 311.796 265.267 299.555 264.688 288.534C264.295 280.904 264.523 263.556 254.287 261.591C244.673 259.751 245.603 273.109 247.03 278.671C250.566 292.338 255.962 305.799 261.235 318.867C262.434 321.845 266.88 320.79 266.156 317.502C264.233 308.797 264.647 300.072 267.748 291.697C266.921 292.318 266.115 292.938 265.288 293.558C271.305 294.158 272.566 306.916 275.378 311.155C278.025 315.125 282.367 317.172 287.143 316.179C296.593 314.235 305.319 304.579 304.14 294.716C303.106 286.094 293.822 280.883 287.908 288.927C282.512 296.246 287.019 306.978 294.939 310.369C305.649 314.959 314.458 304.021 318.118 295.337C322.749 284.316 322.894 271.413 319.028 260.144C317.208 254.83 314.541 249.826 311.046 245.422C308.399 242.093 304.037 236.758 299.612 235.931C295.518 235.166 292.995 239.033 292.602 242.589C291.92 248.668 295.993 255.182 298.206 260.62C300.956 267.34 303.623 274.08 306.456 280.78C308.606 285.908 311.087 291.429 315.823 294.696C324.238 300.506 334.742 296.04 339.622 287.893C345.949 277.389 345.37 263.308 342.703 251.811C340.097 240.646 334.535 228.136 325.582 220.568C322.15 217.653 317.911 217.342 314.851 220.961C311.253 225.22 312.101 231.362 313.445 236.303C316.65 248.089 322.894 259.379 330.855 268.58C338.567 277.492 347.934 283.489 357.735 273.77C365.551 266.016 369.335 254.706 369.811 243.892C370.265 233.636 367.102 215.523 353.806 214.675C342.724 213.972 340.015 228.446 341.731 236.655C343.654 245.856 353.248 257.456 363.545 251.915C368.487 249.247 371.237 243.685 373.222 238.681C376.386 230.762 378.309 222.388 379.487 213.951C379.942 210.746 375.042 209.361 374.566 212.587C373.346 221.23 365.22 261.55 350.643 243.788C346.094 238.247 344.109 228.219 348.865 222.14C355.936 213.083 363.277 229.19 364.207 234.691C365.613 242.961 364.455 252.018 361.085 259.689C358.231 266.161 351.098 277.492 342.848 272.695C336.19 268.828 330.979 261.219 327.071 254.768C322.832 247.779 317.87 238.598 317.373 230.245C317.167 226.709 318.552 222.077 323.763 225.944C325.065 226.895 326.161 228.674 327.133 229.955C329.697 233.367 331.868 237.068 333.646 240.956C337.099 248.503 339.084 256.856 339.353 265.148C339.601 272.861 338.609 282.558 332.923 288.368C330.007 291.346 325.686 293.083 321.55 291.883C317.229 290.622 314.685 286.445 312.804 282.661C308.916 274.846 306.022 266.43 302.713 258.345C301.162 254.541 298.95 250.488 298.04 246.476C297.523 244.202 297.13 241.142 300.108 241.886C301.824 242.32 303.788 244.926 304.988 246.187C316.174 258.056 319.544 276.582 314.003 291.821C311.17 299.637 301.369 312.623 293.119 302.739C290.555 299.679 288.86 292.917 293.367 290.519C299.074 287.5 299.591 297.239 298.474 300.527C296.986 304.889 292.54 308.673 288.343 310.369C281.643 313.098 278.831 307.681 276.908 302.16C274.861 296.267 272.359 289.133 265.246 288.43C264.068 288.306 263.158 289.32 262.786 290.291C259.374 299.513 259.085 309.273 261.194 318.805C262.827 318.35 264.461 317.895 266.115 317.44C261.214 305.282 256.727 292.938 252.861 280.428C252.054 277.802 251.248 275.197 251.041 272.447C251 271.827 250.834 270.483 251.02 269.78C251.806 266.885 254.536 266.43 256.21 269.139C259.374 274.329 259.25 282.537 259.539 288.472C260.118 299.637 259.209 314.897 248.663 321.679C238.614 328.13 228.627 316.903 229.247 306.792C229.413 304.228 230.219 301.023 232.783 299.865C236.939 297.983 238.201 302.553 238.056 305.799C237.808 311.816 233.858 317.751 229.309 321.431C219.777 329.144 204.642 326.745 200.796 314.111C199.927 311.258 199.596 307.97 200.547 305.075C201.581 301.953 205.159 298.438 208.674 300.63C215.208 304.724 205.055 315.662 202.016 318.557C193.455 326.724 179.974 327.324 173.771 315.91C171.103 310.989 170.256 304 172.695 298.81C173.357 297.425 174.143 296.205 175.549 295.502C178.878 293.786 181.028 296.763 180.801 299.948C180.615 302.532 179.353 305.138 177.513 306.936C172.178 312.188 163.68 311.444 158.242 306.874C152.721 302.222 149.93 294.944 149.434 287.913C149.227 284.75 144.14 284.729 144.368 287.996Z" fill="white"/>
<path d="M122.596 259.358C121.024 263.204 122.451 267.298 124.436 270.689C126.441 274.142 128.881 277.554 131.921 280.18C137.338 284.874 144.389 287.479 151.543 287.562C158.077 287.644 167.982 285.535 170.422 278.505C173.358 270.007 162.42 266.285 155.948 267.401C146.023 269.138 143.955 281.09 144.493 289.464C144.699 292.71 149.807 292.752 149.579 289.464C149.145 282.723 150.282 271.661 159.38 272.281C161.903 272.447 167.217 273.811 165.376 277.409C163.908 280.283 159.566 281.421 156.671 282.02C150.406 283.323 143.624 281.958 138.227 278.567C135.105 276.623 132.707 273.956 130.66 270.937C128.654 268.001 126.028 264.383 127.537 260.723C128.737 257.683 123.815 256.36 122.596 259.358Z" fill="white"/>
<path d="M379.592 213.29C380.833 201.835 379.261 190.194 374.671 179.607C370.06 168.958 362.223 159.757 353.952 151.755C338.134 136.454 317.995 120.698 294.898 120.987C291.631 121.029 291.611 126.115 294.898 126.074C316.609 125.805 335.508 141.023 350.355 155.353C357.902 162.652 365.056 170.923 369.522 180.496C374.299 190.69 375.705 202.166 374.505 213.29C374.133 216.536 379.241 216.516 379.592 213.29Z" fill="white"/>
</svg>
